<svg viewBox="0 0 80 56" width="512" height="358" xmlns="http://www.w3.org/2000/svg">
  <rect x="5" y="1" width="70" height="43" rx="4" fill="#C8C8D0" stroke="#9898A8" stroke-width="1"/>
  <rect x="8" y="4" width="64" height="37" rx="2" fill="#12102A"/>
  <g stroke="white" stroke-width="0.75" opacity="0.55">
    <line x1="13" y1="17" x2="67" y2="17"/>
    <line x1="13" y1="21" x2="67" y2="21"/>
    <line x1="13" y1="25" x2="67" y2="25"/>
    <line x1="13" y1="29" x2="67" y2="29"/>
    <line x1="13" y1="33" x2="67" y2="33"/>
  </g>
  <ellipse cx="24" cy="29" rx="4" ry="3" fill="#F5C020" transform="rotate(-20 24 29)"/>
  <line x1="27.5" y1="27" x2="27.5" y2="13" stroke="#F5C020" stroke-width="1.8"/>
  <ellipse cx="36" cy="26" rx="4" ry="3" fill="#F5C020" transform="rotate(-20 36 26)"/>
  <line x1="39.5" y1="24" x2="39.5" y2="11" stroke="#F5C020" stroke-width="1.8"/>
  <line x1="27.5" y1="13" x2="39.5" y2="11" stroke="#F5C020" stroke-width="3"/>
  <path d="M53,18 Q52,11 62,11 Q72,11 71,21 Q70,32 61,32 Q54,32 52,27 Q49,22 53,18 Z" fill="#C89020" opacity="0.85"/>
  <circle cx="57" cy="27" r="2.5" fill="#12102A"/>
  <circle cx="58" cy="15" r="2.2" fill="#E85040" opacity="0.9"/>
  <circle cx="65" cy="13" r="2.2" fill="#4888E0" opacity="0.9"/>
  <circle cx="70" cy="20" r="2.2" fill="#48C848" opacity="0.9"/>
  <rect x="1" y="44" width="78" height="9" rx="3" fill="#B8B8C2" stroke="#9898A8" stroke-width="1"/>
  <rect x="27" y="46" width="26" height="5" rx="2.5" fill="#A8A8B4" stroke="#9898A8" stroke-width="0.6"/>
</svg>